<svg version="1.0" xmlns="http://www.w3.org/2000/svg" xmlns:xlink="http://www.w3.org/1999/xlink" x="0px" y="0px" width="24px"
	 height="24px" viewBox="0 0 24 24" style="enable-background:new 0 0 24 24;" xml:space="preserve">
	<polyline style="fill:none;stroke:#000000;stroke-linecap:round;stroke-linejoin:round;stroke-miterlimit:10;" points="6.5,12.5 
		6.5,8.5 9.5,5.5 14.5,5.5 17.5,8.5 17.5,12.5"/>
	<polyline style="fill:none;stroke:#000000;stroke-linecap:round;stroke-linejoin:round;stroke-miterlimit:10;" points="23.5,23 
		22,21.5 20,23.5 18,21.5 16,23.5 14,21.5 12,23.5 10,21.5 8,23.5 6,21.5 4,23.5 2,21.5 0.5,23"/>
	<polyline style="fill:none;stroke:#000000;stroke-linecap:round;stroke-linejoin:round;stroke-miterlimit:10;" points="23.5,19.5 
		22,18 20,20 18,18 16,20 14,18 12,20 10,18 8,20 6,18 4,20 2,18 0.5,19.5"/>
	<polyline style="fill:none;stroke:#000000;stroke-linecap:round;stroke-linejoin:round;stroke-miterlimit:10;" points="23.5,16 
		22,14.5 20,16.5 18,14.5 16,16.5 14,14.5 12,16.5 10,14.5 8,16.5 6,14.5 4,16.5 2,14.5 0.5,16"/>
</svg>
