<?xml version="1.0" encoding="UTF-8"?><!DOCTYPE svg PUBLIC "-//W3C//DTD SVG 1.1//EN" "http://www.w3.org/Graphics/SVG/1.1/DTD/svg11.dtd"><svg xmlns="http://www.w3.org/2000/svg"><symbol id="svg-icon-answer-phone" viewBox="0 0 24 24"><g><g fill="none" stroke="#000" stroke-linecap="round" stroke-linejoin="round" stroke-miterlimit="10"><path d="M10.5 15.5v5l-3 3h-7v-7l16-16h7v7l-3 3h-5zM21.5 16.5h-5v5M16.5 16.5l7 7"/></g></g></symbol><symbol id="svg-icon-apple" viewBox="0 0 24 24"><g><g fill="none" stroke="#000" stroke-linecap="round" stroke-linejoin="round" stroke-miterlimit="10"><path d="M13.5 12v5l2.5-2.5z"/><path d="M11.5 8l-4-2-7 4 3 11.5 3 2 5-2.5 5 2.5 3-2 3-11.5-7-4z"/><path d="M9.5 12v5L7 14.5zM11.5 8l-2-5.5M10.432 5.068L12.5 1.5l4.5-1-2 4z"/></g></g></symbol><symbol id="svg-icon-axe" viewBox="0 0 24 24"><g><g fill="none" stroke="#000" stroke-linecap="round" stroke-linejoin="round" stroke-miterlimit="10"><path d="M5.5 4.5V9H13l3 3.5 3.5-6-3.5-6-3 4z"/><path d="M10.5 9v10l2 2-2.5 2.5L7.5 21l1-6.5-1-5.5M7.5 4.5v-2h3v2M14.238 10.444L17 6.5l-2.655-3.793"/></g></g></symbol><symbol id="svg-icon-beaker" viewBox="0 0 24 24"><g><g fill="none" stroke="#000" stroke-linecap="round" stroke-linejoin="round" stroke-miterlimit="10"><path d="M11.5 9.5l6 6-4 8h-9l-4-8 6-6v-5l-2-4h9l-2 4z"/><path d="M16.5 11.5v-4l-1-4h8l-1 4V21l-3 2.5-3-2.5M5.5 18.5h7M19.5 18.5h3M19.5 15.5h3M19.5 12.5h3"/></g></g></symbol><symbol id="svg-icon-boat-1" viewBox="0 0 24 24"><g><g fill="none" stroke="#000" stroke-linecap="round" stroke-linejoin="round" stroke-miterlimit="10"><path d="M1 22.5l1-1 2 2 2-2 2 2 2-2 2 2 2-2 2 2 2-2 2 2 2-2 1 1"/><path d="M4.5 23l-4-8.5 9 3h14l-1.5 4"/><path d="M6.5 16.5v-7H11l3 3h7.5M20.5 12.5l1 5"/><path d="M9 9.5L11 4l5.5 2-2.5 6.5M10.176 6.26l5.422 2.086M14.5 1.5l1-1 2 2 2-2 2 2 2-2M21.117 15.5H14.5v-3M17.5 15.5v-3M6.5 12.5h4v2h-4"/></g></g></symbol><symbol id="svg-icon-boat-2" viewBox="0 0 24 24"><g><g fill="none" stroke="#000" stroke-linecap="round" stroke-linejoin="round" stroke-miterlimit="10"><path d="M1.5 23.5l2-2 2 2 2-2 2 2 2-2 2 2 2-2 2 2 2-2 2 2 2-2"/><path d="M3.5 21.5l-3-4h23l-3 5M21.5 17.5v-6l-5-1.5v7.5M2.5 8.5h9v9"/><path d="M2.5 17.5v-2h4v2M7.5 8.5l4 4M4.5 10.5v.5M4.5 13v.5M16.5 12.5l2.5.5v1.5h-2.5M19 2.5L20.5 5l2-2M15 5l1 1 1-1"/></g></g></symbol><symbol id="svg-icon-bow-arrow" viewBox="0 0 24 24"><g><g fill="none" stroke="#000" stroke-linejoin="round" stroke-miterlimit="10"><path d="M20.5 13.5l-1-1 1-1 3 1z"/><path stroke-linecap="round" d="M8.5 23.5v-2l9-5V7l-9-4.5v-2"/><g stroke-linecap="round"><path d="M.5 11.5l1 1-1 1M2 10.5c0 .083 2 2 2 2l-2 2M1.5 12.5h18"/></g><path stroke-linecap="round" d="M5 10l3.5-7.5M5 14l3.5 7.5"/></g></g></symbol><symbol id="svg-icon-bubble-1" viewBox="0 0 24 24"><g><g fill="none" stroke="#000" stroke-linejoin="round" stroke-miterlimit="10"><path d="M19 18.5h-4.5l-5 5v-5H5L.5 14V5L5 .5h14L23.5 5v9z"/><path stroke-linecap="round" d="M18 8.5l1.5 1.5-1.5 1.5-1.5-1.5zM12 8.5l1.5 1.5-1.5 1.5-1.5-1.5zM6 8.5L7.5 10 6 11.5 4.5 10z"/></g></g></symbol><symbol id="svg-icon-bubble-2" viewBox="0 0 24 24"><g><g fill="none" stroke="#000" stroke-linejoin="round" stroke-miterlimit="10"><path d="M17.5 22.5H8L6.5 21l-6 2.5 3-5.5-2-2V7.5l7-7h8l7 7v9z"/><path stroke-linecap="round" d="M7.5 8.5h10M7.5 11.5h9M7.5 14.5h4"/></g></g></symbol><symbol id="svg-icon-bubble-3" viewBox="0 0 24 24"><g><g fill="none" stroke="#000" stroke-linejoin="round" stroke-miterlimit="10"><path d="M23.5 14.5H21v4l-4-4H5.5V.5h18z"/><g stroke-linecap="round"><path d="M11 9l1.5 1.5h4L18 9M12.5 5v1M16.5 5v1"/></g><path d="M15.5 14.5v5H6l-4 4v-4H.5v-12h5"/></g></g></symbol><symbol id="svg-icon-buildings-1" viewBox="0 0 24 24"><g><path fill="none" stroke="#000" stroke-linecap="round" stroke-linejoin="round" stroke-miterlimit="10" d="M2.5 15.5l-2 3h7v-3zM7.5 23.5v-12l4-4 4 4v12M7.5 11.5h8M17.5 4.5h1M20.5 4.5h1M17.5 7.5h1M20.5 7.5h1M17.5 10.5h1M20.5 10.5h1M17.5 13.5h1M20.5 13.5h1M17.5 16.5h1M20.5 16.5h1M17.5 19.5h1M20.5 19.5h1"/><path fill="none" stroke="#000" stroke-linecap="round" stroke-linejoin="round" stroke-miterlimit="10" d="M9.5 13.5h4v3h-4zM9.5 18.5h4v3h-4zM3.5 23.5v-3h2v3"/><path fill="none" stroke="#000" stroke-linecap="round" stroke-linejoin="round" stroke-miterlimit="10" d="M15.5 11.5v-9h8v21h-22v-5M2.5 5.5l-2-2 2-1.5V.5h2l1 1H9l2 2-2 2z"/></g></symbol><symbol id="svg-icon-buildings-2" viewBox="0 0 24 24"><g><g fill="none" stroke="#000" stroke-linecap="round" stroke-linejoin="round" stroke-miterlimit="10"><path d="M.5 18.5h5l4-4h-5zM13.5 18.5l-4-4"/><path d="M2.5 18.5v5h5v-7M7.5 23.5h4v-7M6 7.5h7.5l5-5H11zM23.5 7.5l-5-5M15.5 21.5v-16M8.5 7.5v5M14.5 21.5h7v-16M17.5 8v1M20 8v1M17.5 12v1M20 12v1M17.5 16v1M20 16v1M9.5 21.5v2"/></g></g></symbol><symbol id="svg-icon-busstop" viewBox="0 0 24 24"><g><g fill="none" stroke="#000" stroke-linecap="round" stroke-linejoin="round" stroke-miterlimit="10"><path d="M2.5 4.5h14v17h-14z"/><path d="M2.5 14.5l7 3 7-3M23 18.5h-3l-.5-6h4zM21.5 18.5v5M4.5 19.5h2M12.5 19.5h2M5.5 21.5v2M13.5 21.5v2M.5 9.5v-2h18v2"/></g></g></symbol><symbol id="svg-icon-cactus" viewBox="0 0 24 24"><g><g fill="none" stroke="#000" stroke-linecap="round" stroke-linejoin="round" stroke-miterlimit="10"><path d="M17.5 17.5h-11V6l3-3.5h5l3 3.5zM4 17.5h16l-2 6H6z"/><path d="M5.625 22.375L8 20l2 2 2-2 2 2 2-2 2.375 2.375M13.5 15.5V10M13.5 8v-.5M10.5 9.5V13M10.5 15v.5M10.5 7v.5M13.5 6v-.5M9.5 2.5v-2M6.5 8.5h-2M6.5 11.5h-2M6.5 14.5h-2M6.5 6L5 5M8.115 4.115L6.5 2.5M17.5 8.5h2M17.5 11.5h2M17.5 14.5h2M17.5 6L19 5M15.885 4.115L17.5 2.5M14.5 2.5v-2"/></g></g></symbol><symbol id="svg-icon-calendar-check" viewBox="0 0 24 24"><g><g fill="none" stroke="#000" stroke-linecap="round" stroke-linejoin="round" stroke-miterlimit="10"><path d="M6.5 14.5l4 4 7-8"/><path d="M.5 6.5h23v17H.5zM.5 6.5v-5h23v5M11.5 3.5v-3M17.5 3.5v-3M5.5 3.5v-3"/></g></g></symbol><symbol id="svg-icon-camera-1" viewBox="0 0 24 24"><g><g fill="none" stroke="#000" stroke-linejoin="round" stroke-miterlimit="10"><path stroke-linecap="round" d="M.5 8.5h23v15H.5zM8.5 8.5v15M1.5 5.5h6v3h-6z"/><path stroke-linecap="round" d="M16.5 13.5H15L13.5 15v1.5"/><path d="M18 20.5h-4L11.5 18v-4l2.5-2.5h4l2.5 2.5v4z"/></g></g></symbol><symbol id="svg-icon-camera-2" viewBox="0 0 24 24"><g><g fill="none" stroke="#000" stroke-linejoin="round" stroke-miterlimit="10"><path d="M4.5 10.5l-3-5 3-5h5l3 5-3 5zM15.5 10.5l-1.5-3 1.5-3h4l1.5 3-1.5 3zM5.5 12.5h11v7h-11z"/><path stroke-linecap="round" d="M6.5 23.5l4-4 4 4"/><path d="M17.5 16l4-2.5v5z"/><path stroke-linecap="round" d="M18 7l-1 1M7.5 5l-1 1"/></g></g></symbol><symbol id="svg-icon-cassette-player" viewBox="0 0 24 24"><g><g fill="none" stroke="#000" stroke-linejoin="round" stroke-miterlimit="10"><path d="M5.5 13.5h13v10h-13z"/><path d="M5.5 19.5h7l6-6"/><path stroke-linecap="round" d="M15.5 21h1"/><path d="M6.5 11.5h8v2h-8zM10.5 11.5v2"/><path d="M3 15.5H.5l1 6h2l-1-12 5-5h9l5 5-1 12h2l1-6H21"/></g></g></symbol><symbol id="svg-icon-cassette" viewBox="0 0 24 24"><g><g fill="none" stroke="#000" stroke-linecap="round" stroke-linejoin="round" stroke-miterlimit="10"><path d="M.5 4.5h23v15H.5z"/><path d="M17.5 19.5l-3-3h-5l-3 3zM18.5 7.5l2 3-2 3h-3l-2-3 2-3zM8.5 7.5l2 3-2 3h-3l-2-3 2-3zM8.5 7.5h7M8.5 13.5h7M7.5 10.5h-1M17.5 10.5h-1"/></g></g></symbol><symbol id="svg-icon-cat" viewBox="0 0 24 24"><g><g fill="none" stroke="#000" stroke-linecap="round" stroke-linejoin="round" stroke-miterlimit="10"><path d="M8.5 4.5V5M11.5 4.5V5M7.5 23.5V8l-2-2.5v-5l3.5 2h2.5l3-2v5l-2 2.5 8 6 2 6-2 3.5H5L2.5 21 5 16.5 1.5 13M12.5 23.5v-10M9.5 23.5v-10"/><path d="M17.5 17.5H15l-2.5 4M9.5 7l.5-.5.5.5"/></g></g></symbol><symbol id="svg-icon-chair" viewBox="0 0 24 24"><g><g fill="none" stroke="#000" stroke-linecap="round" stroke-linejoin="round" stroke-miterlimit="10"><path d="M16.5.5l2 8.5 3 3-9.5 2-9.5-2 3-3 2-8.5z"/><path d="M14 17.5l4-4.763L20 23.5l-6-6h-4l-6 6 2-10.763 4 4.763"/></g></g></symbol><symbol id="svg-icon-check-in-pin" viewBox="0 0 24 24"><g><g fill="none" stroke="#000" stroke-linejoin="round" stroke-miterlimit="10"><path d="M3.5 6l4-5.5h9l4 5.5L12 23.5z"/><path stroke-linecap="round" d="M14.5 8.5L12 10 9.5 8.5v-3L12 4l2.5 1.5z"/></g></g></symbol><symbol id="svg-icon-check" viewBox="0 0 24 24"><g><g fill="none" stroke="#000" stroke-linejoin="round" stroke-miterlimit="10"><path d="M22.5 18L12 23.5 1.5 18V6L12 .5 22.5 6z"/><path stroke-linecap="round" d="M6.5 12l4 4 8-8"/></g></g></symbol><symbol id="svg-icon-checklist" viewBox="0 0 24 24"><g><g fill="none" stroke="#000" stroke-linecap="round" stroke-linejoin="round" stroke-miterlimit="10"><path d="M10.5 22.5H.5v-20h15v15z"/><path d="M10.5 22.5v-5h5M3.5 7L5 8.5l2.5-3M3.5 12.5L5 14l2.5-3M8.5 7.5h4M8.5 13.5h4M17.5 2.5h3v17h-3zM17.5 19.5l1.5 3 1.5-3M17.5 7.5h3M20.5 3.5h3l-1 7 1 1M19 2.5v-1"/></g></g></symbol><symbol id="svg-icon-chef" viewBox="0 0 24 24"><g><g fill="none" stroke="#000" stroke-linecap="round" stroke-linejoin="round" stroke-miterlimit="10"><path d="M21.5 23.5v-6l-7-2v3h-6v5M2.5 23.5v-6l7-2v-1.928M11.5 22.5h.5M11.5 20.5h.5M8.5 7.5h7V13L12 15l-3.5-2zM8.5 7.5v-7l1.5 1 2-1 2 1 1.5-1v7M8.5 8.5h-2V10l2 1.5M15.5 8.5h2V10l-2 1.5M10 7.5v-2M14 7.5v-2M12 7.5v-2M14.5 15.5v-1.93M10.5 9.5v.5M13.5 9.5v.5"/></g></g></symbol><symbol id="svg-icon-clock" viewBox="0 0 24 24"><g><g fill="none" stroke="#000" stroke-linecap="round" stroke-linejoin="round" stroke-miterlimit="10"><path d="M16.5 23.5h-10l-6-7v-9l7-7h9l7 7v9zM21 12.5h-2M18.5 18.5L17 17M11.5 21v-2M5.5 18.5L7 17M3 12.5h2M5.5 5.5L7 7M18.5 5.5L17 7"/><path d="M11.5 4v8.5H16"/></g></g></symbol><symbol id="svg-icon-colosseum" viewBox="0 0 24 24"><g><g fill="none" stroke="#000" stroke-linecap="round" stroke-linejoin="round" stroke-miterlimit="10"><path d="M.5 23.5h23M.5 16.5h23M.5 8.5H19M12.5 8.5L8 .5H1.5v23"/><path d="M4.5 16.5v-4l2-2 2 2v4M11.5 16.5v-4l2-2 2 2v4M4 3.5V5M6.5 3.5V5M18 8.5v8M4.5 23.5v-3l2-2 2 2v3M11.5 23.5v-3l2-2 2 2v3M18.5 23.5v-3l2-2 2 2v3"/></g></g></symbol><symbol id="svg-icon-credit-card" viewBox="0 0 24 24"><g><g fill="none" stroke="#000" stroke-linecap="round" stroke-linejoin="round" stroke-miterlimit="10"><path d="M22.5 19.5H.5l1-15h22zM4 15.5h2M8 15.5h5M1.3 7.5h21.985M1.1 10.5h22"/></g></g></symbol><symbol id="svg-icon-crown" viewBox="0 0 24 24"><g><g fill="none" stroke="#000" stroke-linecap="round" stroke-linejoin="round" stroke-miterlimit="10"><path d="M20.5 23.5l-1.5-3 4.5-6-4-4.5-3.5 4 1.5 1.5L19 14l-4-6-3 3.5L9 8l-4 6 1.5 1.5L8 14l-3.5-4-4 4.5 4.5 6-1.5 3zM12 10.917V.5M8.5 3.5h7M5 20.5h14"/></g></g></symbol><symbol id="svg-icon-crystal-ball" viewBox="0 0 24 24"><g><g fill="none" stroke="#000" stroke-linejoin="round" stroke-miterlimit="10"><path d="M6 21.5L.5 12 6 2.5h12l5.5 9.5-5.5 9.5z"/><path d="M23.5 12L16 7.5l-10-5-1 11 1 8 10.5-2z"/><path d="M16 7.5l-11 6 11.5 6zM18 21.5l-1.5-2M.5 12L5 13.5M18 2.5l-2 5"/></g></g></symbol><symbol id="svg-icon-dj-station" viewBox="0 0 24 24"><g><g fill="none" stroke="#000" stroke-linejoin="round" stroke-miterlimit="10"><path stroke-linecap="round" d="M15.5 3.5H.5v20h23v-13M23.5 4.5l-2 2h-2l-2-2v-4h6z"/><path stroke-linecap="round" d="M20.5 6.5v12l-2 2M14.5 16L12 17.5M5.5 10L8 8.5"/><path d="M16.5 17L10 20.5 3.5 17V9L10 5.5 16.5 9z"/><path d="M12.5 14.5L10 16l-2.5-1.5v-3L10 10l2.5 1.5z"/></g></g></symbol><symbol id="svg-icon-dog" viewBox="0 0 24 24"><g><g fill="none" stroke="#000" stroke-linecap="round" stroke-linejoin="round" stroke-miterlimit="10"><path d="M7.5 4v1M14 8.5l4.5 9.5v5.5"/><path d="M10 5l1.5 3.5H17l-4-8H6.5l-2 4-3 1v4h4l2 6-2.5 5"/><path d="M14.5 16.5H10l-2 4H3.5l-1 3h16M18.5 23.5l4-4V16l-2-4"/></g></g></symbol><symbol id="svg-icon-download-1" viewBox="0 0 24 24"><g><g fill="none" stroke="#000" stroke-linecap="round" stroke-linejoin="round" stroke-miterlimit="10"><path d="M5.5 15.5h-2l-3-3v-4l3-3h3v-2l3-3h5l3 3v2H21L23.5 8v4.5l-3 3h-2M11.5 10.5v13M7.5 19.5l4 4 4-4"/></g></g></symbol><symbol id="svg-icon-download-2" viewBox="0 0 24 24"><g><g fill="none" stroke="#000" stroke-linejoin="round" stroke-miterlimit="10"><path stroke-linecap="round" d="M15.5 13.5l-4 4-4-4M11.5 17.5v-11"/><path d="M22.5 18L12 23.5 1.5 18V6L12 .5 22.5 6z"/></g></g></symbol><symbol id="svg-icon-effeil-tower" viewBox="0 0 24 24"><g><g fill="none" stroke="#000" stroke-linecap="round" stroke-linejoin="round" stroke-miterlimit="10"><path d="M4 23.5l3.5-5 2.5-5 1.5-9M20 23.5l-3.5-5-2.5-5-1.5-9M10.5 2.5h3l-.5 2h-2zM12 2.5v-2M8.5 12.5h7M6.5 17.5h11M16.5 23.5l-1-2L12 20l-3.5 1.5-1 2M11 16l1-1 1 1"/></g></g></symbol><symbol id="svg-icon-exercise-bike" viewBox="0 0 24 24"><g><g fill="none" stroke="#000" stroke-linejoin="round" stroke-miterlimit="10"><path d="M6 22.5L1.5 18 6 13.5h5l1.5 4 6 1.5v3.5z"/><path stroke-linecap="round" d="M12.5 17.5l6-9h2l3-3-3-3h-4M8 13.5l-5-5M1.5 8.5H8L7.5 7l-7-1.5zM6 22.5l-1 1M18.5 22.5l1 1"/><path d="M8.5 18.5l-1 .5-1-.5v-1l1-.5 1 .5zM8.166 18.666L10 20.5"/><path stroke-linecap="round" d="M8.5 20.5h3"/></g></g></symbol><symbol id="svg-icon-flag-1" viewBox="0 0 24 24"><g><g fill="none" stroke="#000" stroke-linecap="round" stroke-linejoin="round" stroke-miterlimit="10"><path d="M3.5 8.5l6-6 7 7-6 6z"/><path d="M11.5 4.5l4-4 7 7-4 4zM1.5 6.5l17 17"/></g></g></symbol><symbol id="svg-icon-flag-2" viewBox="0 0 24 24"><g><g fill="none" stroke="#000" stroke-linecap="round" stroke-linejoin="round" stroke-miterlimit="10"><path d="M2.5 19.5l8 4 8-4-8-4zM10.5 19.5V.5M10.5 2.5h12l-4 4 4 4h-12"/></g></g></symbol><symbol id="svg-icon-flask" viewBox="0 0 24 24"><g><g fill="none" stroke="#000" stroke-linecap="round" stroke-linejoin="round" stroke-miterlimit="10"><path d="M2.5 6.5h19v17h-19zM10.5 3.5h3v3h-3zM8.5.5h7v3h-7zM8.5 3.5h-4v3M2.5 9.5h19M10.5.5v3M13.5.5v3M12 14l.5-.5M6.5 19.5L11 15M11.5 19l-.5.5M17 13.5L12.5 18"/></g></g></symbol><symbol id="svg-icon-french-press" viewBox="0 0 24 24"><g><g fill="none" stroke="#000" stroke-linecap="round" stroke-linejoin="round" stroke-miterlimit="10"><path d="M6.5 6.5h11v15h-11zM6.5 16.5h11M17.5 8.5H23l-3 9h-2.5M6.5 11L3 6.5h3.5M12 14.5v-8M8 6.5l7-6H9l7 6M8.5 21.5l-1.5 2M15.5 21.5l1.5 2M8.5 14.5h7"/></g></g></symbol><symbol id="svg-icon-gas-mask" viewBox="0 0 24 24"><g><g fill="none" stroke="#000" stroke-linecap="round" stroke-linejoin="round" stroke-miterlimit="10"><path d="M8 14l2 5.5h4l2-5.5M10.5 15h3M11.5 17h1M5.5 13.5L4 14 .5 17.5l4 4L9 17M2.5 15.5l4 4M12 11.5l4 2.5 2.5-.5 2-7.5L12 3.5 3.5 6l2 7.5L8 14zM18.5 13.5l1.5.5 3.5 3.5-4 4L15 17M21.5 15.5l-4 4"/><path d="M18.5 8L12 6 5.5 8"/></g></g></symbol><symbol id="svg-icon-gramophone" viewBox="0 0 24 24"><g><g fill="none" stroke="#000" stroke-linecap="round" stroke-linejoin="round" stroke-miterlimit="10"><path d="M6.5 16.5h11v5h-11zM6.5 21.5l-2 2h15l-2-2M5 14.5h14M12 16.5V13M17.5 18.5h3v2h3M.5.5v12l15-6zM15.5 6.5h5L23 9l-2.5 2.5h-5M3.5 1.7v9.6"/></g></g></symbol><symbol id="svg-icon-hand" viewBox="0 0 24 24"><g><path fill="none" stroke="#000" stroke-linecap="round" stroke-linejoin="round" stroke-miterlimit="10" d="M12 23.5l-6-3-1.5-13H6L7.5 13V3.5H9l1.5 9.5L11 .5h2l.5 12.5L15 3.5h1.5v13l4-3.5.5 1-4 7.5z"/></g></symbol><symbol id="svg-icon-hangup-phone" viewBox="0 0 24 24"><g><g fill="none" stroke="#000" stroke-linecap="round" stroke-linejoin="round" stroke-miterlimit="10"><path d="M10.5 15.5v5l-3 3h-7v-7l16-16h7v7l-3 3h-5zM18.5 23.5h5v-5M23.5 23.5l-7-7"/></g></g></symbol><symbol id="svg-icon-headphone" viewBox="0 0 24 24"><g><g fill="none" stroke="#000" stroke-linejoin="round" stroke-miterlimit="10"><path d="M6.5 12.5v11l-3-4v-3zM4.5 5l-4 2L3 13v3.5M3.5 16.5h-2v3h2M6.5 12.5h2v11h-2M17.5 12.5v11l3-4v-3zM19.5 5l4 2-2.5 6v3.5M20.5 16.5h2v3h-2M17.5 12.5h-2v11h2"/><path d="M12 3l7 3 1-2-8-3.5L4 4l1 2z"/></g></g></symbol><symbol id="svg-icon-hourglass" viewBox="0 0 24 24"><g><g fill="none" stroke="#000" stroke-linejoin="round" stroke-miterlimit="10"><path d="M8.5 4.5l-3-2 3-2h7l3 2-3 2z"/><path d="M18.5 2.5V7L12 12 5.5 7V2.5M5.5 21.5V17l6.5-5 6.5 5v4.5l-3 2h-7z"/><path stroke-linecap="round" d="M14.5 7L12 9 9.5 7M16.5 20.5H15L12 19l-3 1.5H7.5M12 15v1M12 18v1"/></g></g></symbol><symbol id="svg-icon-icecream-bike" viewBox="0 0 24 24"><g><g fill="none" stroke="#000" stroke-linecap="round" stroke-linejoin="round" stroke-miterlimit="10"><path d="M6.5 21.5l-3 2-3-2v-3l3-2 3 2zM10.777 13.5H23.5M15.5 20.5h-2l-3.5-9h13.5v9h-2M13.5 20.5h-7M10.5 5.5l4-5M14.5.5l9 5-2.5 1-2.5-1-4 2-4-2-2.5 1-2.5-1zM18.5 5.5l-4-5M14.5 7.5v4M3 12.5l-2-2h6.5l-3 2zM5.065 12.123L9.5 20.5M8.022 17.71l3.613-2.007M4.5 19l-2 2M2.5 19l2 2"/><path d="M21.5 21.5l-3 2-3-2v-3l3-2 3 2zM19.5 19l-2 2M17.5 19l2 2"/></g></g></symbol><symbol id="svg-icon-lighthouse" viewBox="0 0 24 24"><g><g fill="none" stroke="#000" stroke-linecap="round" stroke-linejoin="round" stroke-miterlimit="10"><path d="M2.5 23.5l2-2 2 2 2-2 2 2 2-2 2 2 2-2 2 2 2-2 2 2M17 8.5H8"/><path d="M6 23L9.5 8V4.5h6V8L19 23M9.5 4.5l3-3 3 3M12.5.5v1M7.2 18.5h10.6M8.8 12.5h7.43M12.5 15.5V15M12.5 10.5V10M4.5.5L6 2 7.5.5M1.5 4L3 5.5 4.5 4"/></g></g></symbol><symbol id="svg-icon-mail-1" viewBox="0 0 24 24"><g><g fill="none" stroke="#000" stroke-linecap="round" stroke-linejoin="round" stroke-miterlimit="10"><path d="M.5 4.5h23v16H.5z"/><path d="M.5 6.5L12 14l11.5-7.5M8.9 11.98L4.5 15.5M15.1 11.98l4.4 3.52"/></g></g></symbol><symbol id="svg-icon-mail-2" viewBox="0 0 24 24"><g><g fill="none" stroke="#000" stroke-linecap="round" stroke-linejoin="round" stroke-miterlimit="10"><path d="M.5 9.5h7M3 12.5h4.5M5.5 15.5h2M9.5 7.5h14v11h-14z"/><path d="M9.5 7.5l7 6 7-6"/></g></g></symbol><symbol id="svg-icon-medal" viewBox="0 0 24 24"><g><path fill="none" stroke="#000" stroke-linecap="round" stroke-linejoin="round" stroke-miterlimit="10" d="M17.5 18v2.5H15l-3 3-3-3H6.5V18L4 15.5 6.5 13v-2.5H9l3-3 3 3h2.5V13l2.5 2.5zM7.5.5v5l4.5 2 4.5-2v-5M5.5.5h13M10.5.5v6.25M13.5.5v6.25"/><path fill="none" stroke="#000" stroke-linejoin="round" stroke-miterlimit="10" d="M14.5 17L12 18.5 9.5 17v-3l2.5-1.5 2.5 1.5z"/></g></symbol><symbol id="svg-icon-megaphone" viewBox="0 0 24 24"><g><g fill="none" stroke="#000" stroke-linecap="round" stroke-linejoin="round" stroke-miterlimit="10"><path d="M17.5 21l-14-6.5v-5l14-6z"/><path d="M5.5 15.428V19l6 3v-3.786M23 19.5L20 18M23 4.5L20 6M.5 15.5l3-1v-5l-3-1zM20 11.5h3.5"/></g></g></symbol><symbol id="svg-icon-microphone" viewBox="0 0 24 24"><g><g fill="none" stroke="#000" stroke-linecap="round" stroke-linejoin="round" stroke-miterlimit="10"><path d="M8 15.5h6l6 4-6 4H8l-6-4zM12.5 4.5l3-4 4.5 19M2 19.5l6.5-9M22 .5v3M20.5 2h3M2 9v3M.5 10.5h3M21 7.5v2M20 8.5h2"/><path d="M9.5 21l2-1.5 2 1.5M11.5 19.5V10"/><g><path d="M8.5 8l3 2H14l-1-2.5-2.5-2z"/><path d="M10.5 5.5L10 3 8 2l-2.5.5L4 5l1 2.5 1.5 1 2-.5"/></g><path d="M5.675 7.95l3.46-5.383"/></g></g></symbol><symbol id="svg-icon-mountain" viewBox="0 0 24 24"><g><g fill="none" stroke="#000" stroke-linejoin="round" stroke-miterlimit="10"><path d="M7.5 11.5l5 12h-10zM10.422 18.514L16 5.5l7.5 18h-11"/><path stroke-linecap="round" d="M.5 3.5l2-2 2 2 2-2 2 2 2-2 2 2M.5 7.5l2-2 2 2 2-2 2 2"/><path d="M13 12.5l1.5 1.5 1.5-1.5 1.5 1.5 1.44-1.44"/></g></g></symbol><symbol id="svg-icon-multi-platform" viewBox="0 0 24 24"><g><g fill="none" stroke="#000" stroke-linejoin="round" stroke-miterlimit="10"><path stroke-linecap="round" d="M15.5 17.5h-13v-8M7.5 4.5h12v8"/><path d="M10.5 17.5v4"/><path stroke-linecap="round" d="M6.5 21.5h8M2.5 14.5h13"/><path d="M.5.5h5v7h-5zM17.5 14.5h6v9h-6z"/><path stroke-linecap="round" d="M2.5 5.5h1"/><path d="M17.5 21.5h6"/></g></g></symbol><symbol id="svg-icon-music-note" viewBox="0 0 24 24"><g><g fill="none" stroke="#000" stroke-linejoin="round" stroke-miterlimit="10"><path d="M21.5 16L18 18l-3.5-2v-4l3.5-2 3.5 2zM9.5 21.5l-3.5 2-3.5-2v-4l3.5-2 3.5 2z"/><path d="M21.5 12V.5L9.5 6v11.5"/></g></g></symbol><symbol id="svg-icon-notebook-pencil" viewBox="0 0 24 24"><g><g fill="none" stroke="#000" stroke-linejoin="round" stroke-miterlimit="10"><path stroke-linecap="round" d="M21.5.5V2M21.5 2l-2 3.5 2 2 2-2zM19.5 5.5v16h4V6M21.5 7.5v12M19.5 21.5l1 2h2l1-2M.5 2.5h15v21H.5z"/><path d="M11.5 11L8 12.5 4.5 11V7L8 5.5 11.5 7zM.5 16.5h15M.5 19.5h15"/><path stroke-linecap="round" d="M19.5 19.5h4"/></g></g></symbol><symbol id="svg-icon-pin-add-1" viewBox="0 0 24 24"><g><g fill="none" stroke="#000" stroke-linecap="round" stroke-linejoin="round" stroke-miterlimit="10"><path d="M12 11.5v-6M9 8.5h6M19.5 12.5L16 13l-4 10.5-3.5-9-4 1v-12l15-3z"/></g></g></symbol><symbol id="svg-icon-pin-add-2" viewBox="0 0 24 24"><g><g fill="none" stroke="#000" stroke-linecap="round" stroke-linejoin="round" stroke-miterlimit="10"><path d="M14.5 13.5l-2.5 10-2.5-10-4-4v-5l4-4h5l4 4v5zM12 9.5v-6M9 6.5h6"/></g></g></symbol><symbol id="svg-icon-pin-minus" viewBox="0 0 24 24"><g><g fill="none" stroke="#000" stroke-linecap="round" stroke-linejoin="round" stroke-miterlimit="10"><path d="M14.5 13.5l-2.5 10-2.5-10-4-4v-5l4-4h5l4 4v5zM9 6.5h6"/></g></g></symbol><symbol id="svg-icon-pizza" viewBox="0 0 24 24"><g><g fill="none" stroke="#000" stroke-linecap="round" stroke-linejoin="round" stroke-miterlimit="10"><path d="M19.5 19v4.5h-15v-16h15v4M4.5 7.5l-4-5v-2h23v2l-4 5"/><path d="M17.5 19L12 22l-5.5-3v-6.5L12 9l5.5 3.5-5.5 3zM16.5 15.5l7-3v6z"/><path d="M6.5 12.5l5.5 3V22"/><path d="M6.5 19l5.5-3.5V9M.5 2.5h23"/></g></g></symbol><symbol id="svg-icon-profile" viewBox="0 0 24 24"><g><g fill="none" stroke="#000" stroke-linejoin="round" stroke-miterlimit="10"><path d="M21.5 18L12 23.5 2.5 18V6L12 .5 21.5 6z"/><path d="M19.707 19.038L14 17v-2l3.5-2V8L12 5 6.5 8v5l3.5 2v2l-5.544 2.132"/><path stroke-linecap="round" d="M10 12l2 1 2-1M17.5 9l-11-1"/></g></g></symbol><symbol id="svg-icon-purse" viewBox="0 0 24 24"><g><g fill="none" stroke="#000" stroke-linecap="round" stroke-linejoin="round" stroke-miterlimit="10"><path d="M19.5 10.5h-15l-4 9 3 4h17l3-4zM18.5 4.5l-4-3h-5l-4 3v6h13zM4.5 10.5l-2-2"/><path d="M16.5 17.5l-2 2h-5l-2-2v-3h9z"/></g></g></symbol><symbol id="svg-icon-ranger" viewBox="0 0 24 24"><g><g fill="none" stroke="#000" stroke-linecap="round" stroke-linejoin="round" stroke-miterlimit="10"><path d="M.5 9.5h23M8.5 12.5v1M15.5 12.5v1M12 19.5l-5.5 3L3 21 .5 15.5l4.5 3 3.5-3L12 18l3.5-2.5 3.5 3 4.5-3L21 21l-3.5 1.5zM19.5 11.5h2V14l-2 1.5v-11L12 .5l-7.5 4v11l-2-1.5v-2.5h2"/><path d="M16.04 21.704L12 23.5l-4.04-1.795M7 6.5L10 5"/></g></g></symbol><symbol id="svg-icon-reception" viewBox="0 0 24 24"><g><g fill="none" stroke="#000" stroke-linecap="round" stroke-linejoin="round" stroke-miterlimit="10"><path d="M2.5 23.5v-7l-2-1v-7l6-4V2L4.5.5 2.5 2v2.5l6 4v7l-2 1v7M13.5 12.5v-2l6-4V4l-2-1.5-2 1.5v2.5l6 4v2M23.5 12.5h-15"/></g></g></symbol><symbol id="svg-icon-robot" viewBox="0 0 24 24"><g><g fill="none" stroke="#000" stroke-linejoin="round" stroke-miterlimit="10"><path d="M10.5 6.5L9 7.5l-1.5-1V5L9 4l1.5 1z"/><path stroke-linecap="round" d="M12 .5v1M16 23.5H8L6.5 16 9 13.5h6l2.5 2.5zM12 10.5v3M7.6 21.5h8.8M2.5 16l.5 3 3.844-1.28M.5 12v2l2 2 2-2v-2M16 10.5L20.5 6 16 1.5H8L3.5 6 8 10.5z"/><path d="M13.5 6.5l1.5 1 1.5-1V5L15 4l-1.5 1z"/><path stroke-linecap="round" d="M21.5 16l-.5 3-3.844-1.28M23.5 12v2l-2 2-2-2v-2"/></g></g></symbol><symbol id="svg-icon-rose-1" viewBox="0 0 24 24"><g><g fill="none" stroke="#000" stroke-linecap="round" stroke-linejoin="round" stroke-miterlimit="10"><path d="M12.5 23.5v-14M12.5 9.5L7 6.5l-.5-3 6-3 6 3-.5 3z"/><path d="M12.5 4.5V3L16 5l-3.5 1.5-6-3"/><path d="M18.35 4.4l2.15 1.1L19 10l-6.5 3L6 10 4.5 5.5l2.15-1.1M12.5 15H16l-3.5 2.5M12.5 19.5H9l3.5 2.5"/></g></g></symbol><symbol id="svg-icon-rose-2" viewBox="0 0 24 24"><g><g fill="none" stroke="#000" stroke-linecap="round" stroke-linejoin="round" stroke-miterlimit="10"><path d="M16.5.5l-2 3 2 3H20l1.5-3-1.5-3z"/><path d="M16.5.5l1.5 3h3.5M16.5 6.5L8 21M14.448 10l2.052-.5 2.5 2h-3.5zM12.877 12.68L12 10.5 8.5 10l2 3zM7.5 13.5l1 2h-3l-3 2v3l3 3h11l3-3v-3l-3-2h-3l1-2M2.5 18.5h17"/></g></g></symbol><symbol id="svg-icon-saxophone" viewBox="0 0 24 24"><g><g fill="none" stroke="#000" stroke-linecap="round" stroke-linejoin="round" stroke-miterlimit="10"><path d="M13.5 23.5h-6l-3-3-1-6-3-1 7-7 4 10 5-16h7l-5 3-3 18zM16 11.5l3 1M15.5 14.5l3 1M16.5 8.5l3 1M6.5 2.5l-2-2v4M.5 4.5h4v2l-3 1z"/></g></g></symbol><symbol id="svg-icon-scooter" viewBox="0 0 24 24"><g><g fill="none" stroke="#000" stroke-linecap="round" stroke-linejoin="round" stroke-miterlimit="10"><path d="M7.5 19.5V22L5 23.5 2.5 22v-2.5M21.5 19.5V22L19 23.5 16.5 22v-2.5M22 19.5l1.5-2v-4L21 11h-6l-2.5 2.5h-2v-6l-4 3L6 15l2.5 4.5zM1.5 16.5L6 15l2.5 4.5h-8z"/><path d="M15 11l-1.5-1.5v-2h9V11zM6 2.5h4.5v5H6L4.5 6V4zM8 5h4"/></g></g></symbol><symbol id="svg-icon-shield" viewBox="0 0 24 24"><g><g fill="none" stroke="#000" stroke-linecap="round" stroke-linejoin="round" stroke-miterlimit="10"><path d="M4.5 7.5h15V18L12 23.5 4.5 18zM6.5 7.5l-2-5 5.5 3L13.5 2 12 .5 10.5 2 14 5.5l5.5-3-2 5M12 7.5v16M7.5 7.5v12.7M16.5 20.2V7.5"/></g></g></symbol><symbol id="svg-icon-shopping-bags" viewBox="0 0 24 24"><g><g fill="none" stroke="#000" stroke-linecap="round" stroke-linejoin="round" stroke-miterlimit="10"><path d="M.5 9.5h11v14H.5zM11.5 15.5h12v8h-12zM14.5 8.5h7v7h-7z"/><path d="M3.5 13V5.5h5V13M16.5 10V6.5h3V10M11.5 19.5h12M17.5 23.5v-8"/></g></g></symbol><symbol id="svg-icon-smart-phone" viewBox="0 0 24 24"><g><g fill="none" stroke="#000" stroke-linecap="round" stroke-linejoin="round" stroke-miterlimit="10"><path d="M18 23.5H6L4.5 22V2L6 .5h12L19.5 2v20zM4.5 19.5h15M4.5 3.5h15M12 21v.5"/></g></g></symbol><symbol id="svg-icon-smiley-1" viewBox="0 0 24 24"><g><g fill="none" stroke="#000" stroke-linejoin="round" stroke-miterlimit="10"><path stroke-linecap="round" d="M7.5 14.5l2 2h5l2-2M6 9.5L8 8l2 1.5M14 9.5L16 8l2 1.5"/><path d="M22.5 18L12 23.5 1.5 18V6L12 .5 22.5 6z"/></g></g></symbol><symbol id="svg-icon-smiley-2" viewBox="0 0 24 24"><g><g fill="none" stroke="#000" stroke-linecap="round" stroke-linejoin="round" stroke-miterlimit="10"><path d="M4 8.5h19.5M4 6.5h2.5M20.5 19.5l-8.5 4-8.5-4v-15l8.5-4 8.5 4zM.5 15.5l3 2v-6h-3zM20.5 17.5l3-2v-4h-3z"/><path d="M8.5 18l3.5 1.5 3.5-1.5M15.5 11.5v3M8.5 11.5v3"/></g></g></symbol><symbol id="svg-icon-smiley-3" viewBox="0 0 24 24"><g><g fill="none" stroke="#000" stroke-linejoin="round" stroke-miterlimit="10"><path d="M19.5 19.5l-7.5 4-7.5-4v-9l7.5-4 7.5 4z"/><path stroke-linecap="round" d="M4.5 14.5h-2v2l2 2M19.5 14.5h2v2l-2 2"/><path d="M12 6.5l1 3.5 6.5 4.5M14.5 4.5l-2.5 2-2.5-2v-2l2.5-2 2.5 2z"/><path stroke-linecap="round" d="M10 18.5l2 1 2-1M8.5 15l1-1 1 1M14 15l1-1 1 1M13.27 7.178L18.5 5"/><path d="M12 6.5L11 10l-6.5 4.5"/><path stroke-linecap="round" d="M10.728 7.178L5.5 5"/></g></g></symbol><symbol id="svg-icon-sofa" viewBox="0 0 24 24"><g><g fill="none" stroke="#000" stroke-linecap="round" stroke-linejoin="round" stroke-miterlimit="10"><path d="M8 18.5l-4-9H.5l4 9zM5.777 13.5h12.445M12 8v3M10.5 9.5h3M6.5 18.5l-2.5 5M20 9.5l-4-5H8l-4 5M16 18.5l4-9h3.5l-4 9zM17.5 18.5l2.5 5M8 18.5h8"/></g></g></symbol><symbol id="svg-icon-spray-can" viewBox="0 0 24 24"><g><path fill="none" stroke="#000" stroke-linejoin="round" stroke-miterlimit="10" d="M15.5 4.5l1-3 2-1 2 1v2H22l1.5 2-1.5 2h-1.5v2l-2 1-2-1-1-3-7-1zM.5 7.5h9v16h-9zM3.5 7.5v-4h3v4"/><path fill="none" stroke="#000" stroke-linecap="round" stroke-linejoin="round" stroke-miterlimit="10" d="M6.5 5.5h-1"/><path fill="none" stroke="#000" stroke-linejoin="round" stroke-miterlimit="10" d="M.5 16.5l9-9M.5 23.5l9-9"/></g></symbol><symbol id="svg-icon-squirrel" viewBox="0 0 24 24"><g><g fill="none" stroke="#000" stroke-linecap="round" stroke-linejoin="round" stroke-miterlimit="10"><path d="M9.5 21.5v-13L7 5.5 6.5 8H4l-2.5 4.5H6v3H3l3 3H3.5l-3 5 4-2H16l2.5-2v-13h4l-4-6-5 3.5L11 21.5M5.5 10v.5"/></g></g></symbol><symbol id="svg-icon-steve-jobs" viewBox="0 0 24 24"><g><g fill="none" stroke="#000" stroke-linecap="round" stroke-linejoin="round" stroke-miterlimit="10"><path d="M5.5 12v-2L7 8.5h2l1.5 1.5v2L9 13.5H7zM13.5 12v-2L15 8.5h2l1.5 1.5v2L17 13.5h-2zM10.5 10.5h3M4 16.5l4.5 2 3.5-2 3.5 2 4.5-2M11 20.5h2"/><path d="M20.5 19.5l-8.5 4-8.5-4v-15l8.5-4 8.5 4zM.5 15.5l3 2v-6h-3zM20.5 17.5l3-2v-4h-3z"/><path d="M8.332 2.332L12 6l3.666-3.667"/></g></g></symbol><symbol id="svg-icon-sun" viewBox="0 0 24 24"><g><g fill="none" stroke="#000" stroke-linejoin="round" stroke-miterlimit="10"><path d="M12 6l6 6-6 6-6-6z"/><path stroke-linecap="round" d="M6 6L2 2M12 3V.5M6 18l-4 4M12 21v2.5M3 12H.5M18 6l4-4M18 18l4 4M21 12h2.5"/></g></g></symbol><symbol id="svg-icon-sunrise" viewBox="0 0 24 24"><path fill="none" stroke="#000" stroke-linecap="round" stroke-linejoin="round" stroke-miterlimit="10" d="M6.5 12.5v-4l3-3h5l3 3v4M23.5 23L22 21.5l-2 2-2-2-2 2-2-2-2 2-2-2-2 2-2-2-2 2-2-2L.5 23M23.5 19.5L22 18l-2 2-2-2-2 2-2-2-2 2-2-2-2 2-2-2-2 2-2-2-1.5 1.5M23.5 16L22 14.5l-2 2-2-2-2 2-2-2-2 2-2-2-2 2-2-2-2 2-2-2L.5 16"/></symbol><symbol id="svg-icon-teapot" viewBox="0 0 24 24"><g><g fill="none" stroke="#000" stroke-linecap="round" stroke-linejoin="round" stroke-miterlimit="10"><path d="M5.5 14.775L5 10.5l-3-2 6-6h6l6 6-3 2-.5 4.275"/><path d="M14 23.5l7.5-5-8-6h-5l-8 6 7.5 5zM21.5 18.5H.5M8.5 12.5L11 9l2.5 3.5"/><path d="M17.094 15.195L22.5 12.5l1 1.5-3 1.5v2.25M6 4.5h10"/></g></g></symbol><symbol id="svg-icon-television" viewBox="0 0 24 24"><g><g fill="none" stroke="#000" stroke-linejoin="round" stroke-miterlimit="10"><path d="M3.5 7.5h17v15h-17z"/><path stroke-linecap="round" d="M7.5 3L12 7.5 16.5 3M4.5 22.5v1M19.5 22.5v1M3.5 19.5l17-3M18 1.5l1-1M6 1.5l-1-1M17 19.5h1"/></g></g></symbol><symbol id="svg-icon-torch-lamp" viewBox="0 0 24 24"><g><g fill="none" stroke="#000" stroke-linecap="round" stroke-linejoin="round" stroke-miterlimit="10"><path d="M5.5 4.5v8l12 4v7h-11v-7l12-4v-8M3.5 4.5h17l-2.5-2H6z"/><path d="M12 6l2 2-1.5 1.5v2h-1l-1.5-3 2-1zM10.5 19.5L12 18l1.5 1.5L12 21zM10.5 19.5h-4M17.5 19.5h-4M9 13.666V11.5h6v2.166M11 11.5v1M13 11.5v1M14.5 2.5l-1-2h-3l-1 2"/></g></g></symbol><symbol id="svg-icon-train" viewBox="0 0 24 24"><g><g fill="none" stroke="#000" stroke-linecap="round" stroke-linejoin="round" stroke-miterlimit="10"><path d="M23.5 19.5V6L18 .5H6L.5 6v13.5M4 23.5l2-3M20 23.5l-2-3"/><path d="M20.5 20.5h-17V8L7 4.5h10L20.5 8z"/><path d="M9.5 8.5h5v12h-5zM9.5 13.5h5M6.5 9.5v4M17.5 9.5v4M3 22.5h18M6.5 17v.5M17.5 17v.5"/></g></g></symbol><symbol id="svg-icon-tram" viewBox="0 0 24 24"><g><g fill="none" stroke="#000" stroke-linecap="round" stroke-linejoin="round" stroke-miterlimit="10"><path d="M23.5 17.5H.5v-4l7-8h16M23.5 20.5h-21l-2-3"/><path d="M.5 13.5h8v-5H5M23.5 8.5h-4v5h4M14 5.5L17 3 14 .5M11.5 17.5v-9h5v9M10.5.5h7"/></g></g></symbol><symbol id="svg-icon-tree-1" viewBox="0 0 24 24"><g><g fill="none" stroke="#000" stroke-linejoin="round" stroke-miterlimit="10"><path d="M17.5 18l-6 4-6-4v-6l6-11.5 6 11.5z"/><path stroke-linecap="round" d="M11.5 8.5v15M15 14.5l-3.5 3-3.5-3M14 11.5l-2.5 2-2.5-2"/></g></g></symbol><symbol id="svg-icon-tree-2" viewBox="0 0 24 24"><g><g fill="none" stroke="#000" stroke-linejoin="round" stroke-miterlimit="10"><path d="M12.5.5l7.5 16H5z"/><path stroke-linecap="round" d="M12.5 23.5v-15M12.5 14L10 11.5M12.5 21l4.5-4.5"/></g></g></symbol><symbol id="svg-icon-tree-sprout" viewBox="0 0 24 24"><g><g fill="none" stroke="#000" stroke-linecap="round" stroke-linejoin="round" stroke-miterlimit="10"><path d="M17 21.5L13.5 17M13.5 17L12 2l-1.5 15zM15 10.5l.5-5 7-1.5-3 6.5zM18.5 7.5l-3.5 3M7 21.5l3.5-4.5M8.338 19.78L4.5 18.5l-4 5h23l-4-5-3.84 1.28M9 10.5l-.5-5-7-1.5 3 6.5zM5.5 7.5l3.5 3"/></g></g></symbol><symbol id="svg-icon-truck" viewBox="0 0 24 24"><g><g fill="none" stroke="#000" stroke-linejoin="round" stroke-miterlimit="10"><path d="M3 18.5H.5l2.5-6h2.5l2.5-6h15.5l-3.5 12h-.5"/><path d="M6 19.5l-1.5 1-1.5-1V18l1.5-1L6 18zM19.5 19.5l-1.5 1-1.5-1V18l1.5-1 1.5 1zM6 18.5h10.5M5.5 12.5H10M12 6.5l-4 12M14 18.5l4-12"/><path stroke-linecap="round" d="M12.5 12.5h1M20.437 17H22M2 23.5h1.5M6.5 23.5H8M11 23.5h1.5M15.5 23.5H17M20 23.5h1.5"/></g></g></symbol><symbol id="svg-icon-turtle" viewBox="0 0 24 24"><g><g fill="none" stroke="#000" stroke-linejoin="round" stroke-miterlimit="10"><path stroke-linecap="round" d="M9.5 20.5h14v-8l-7-4-7 4z"/><path d="M23.5 15l-11.947-3.676"/><path stroke-linecap="round" d="M23.5 19.5L9.5 15"/><path d="M9.5 15l11.944-3.675"/><path stroke-linecap="round" d="M9.5 19.5l14-4.5M6.5 17.5h-6l1.5-5h4.5v5l3 3M3.5 14.5v.5M11.5 20.5l-1.5 3M21.5 20.5l1.5 3M16.5 8.5v12"/></g></g></symbol><symbol id="svg-icon-typing" viewBox="0 0 24 24"><g><g fill="none" stroke="#000" stroke-linecap="round" stroke-linejoin="round" stroke-miterlimit="10"><path d="M13 10.5h-2M3 10.5H.5l2-9h19l2 9H21"/><path d="M.5 23.5l1-3L1 17l1-5h1v4l2-6.5h1.5l-1 6.5L8 10h1.5l-2 7.5L10 16l1 .5-4 5-.5 2M23.5 23.5l-1-3L23 17l-1-5h-1v4l-2-6.5h-1.5l1 6.5-2.5-6h-1.5l2 7.5L14 16l-1 .5 4 5 .5 2M5.5 4.5H6M4.5 6.5H5M8 4.5h.5M7 6.5h.5M10.5 4.5h.5M9.5 6.5h.5M13 4.5h.5M12 6.5h.5M15.5 4.5h.5M14.5 6.5h.5M18 4.5h.5M17 6.5h.5M19.5 6.5h.5"/></g></g></symbol><symbol id="svg-icon-upload-2-100" viewBox="0 0 24 24"><g><g fill="none" stroke="#000" stroke-linejoin="round" stroke-miterlimit="10"><path d="M22.5 18L12 23.5 1.5 18V6L12 .5 22.5 6z"/><path stroke-linecap="round" d="M16.5 10.5l-4-4-4 4M12.5 6.5v11"/></g></g></symbol><symbol id="svg-icon-upload-2-49" viewBox="0 0 24 24"><g><g fill="none" stroke="#000" stroke-linecap="round" stroke-linejoin="round" stroke-miterlimit="10"><path d="M11.5 21.5v-13M7.5 12.5l4-4 4 4"/><path d="M5.5 15.5h-2l-3-3v-4l3-3h3v-2l3-3h5l3 3v2H21L23.5 8v4.5l-3 3h-2"/></g></g></symbol><symbol id="svg-icon-view" viewBox="0 0 24 24"><g><g fill="none" stroke="#000" stroke-linejoin="round" stroke-miterlimit="10"><path stroke-linecap="round" d="M12 10.5l1.5 1.5-1.5 1.5-1.5-1.5z"/><path d="M22.5 18L12 23.5 1.5 18V6L12 .5 22.5 6z"/><path stroke-linecap="round" d="M14 16.5h-4L5 12l5-4.5h4l5 4.5z"/></g></g></symbol><symbol id="svg-icon-wallet" viewBox="0 0 24 24"><g><g fill="none" stroke="#000" stroke-miterlimit="10"><path stroke-linejoin="round" d="M13.5 17.5h10v-5h-10L11 15z"/><path stroke-linecap="round" stroke-linejoin="round" d="M19.5 17.5v6H.5v-17h19v6M21.5 18v3.5h-2M.5 6.5l2-2h19v8"/><path stroke-linecap="round" d="M14.5 15.5v-1"/></g></g></symbol><symbol id="svg-icon-watch" viewBox="0 0 24 24"><g><g fill="none" stroke="#000" stroke-linejoin="round" stroke-miterlimit="10"><path stroke-linecap="round" d="M4.5 4.5h15v15h-15z"/><path stroke-linecap="round" d="M12 16l5-5-2.5-3-2.5 2-2.5-2L7 11zM7.5 2.5h9M19.5 11.5H21"/><path d="M7.5 4.5v-4h9v4"/><path stroke-linecap="round" d="M7.5 21.5h9"/><path d="M7.5 19.5v4h9v-4"/></g></g></symbol><symbol id="svg-icon-windows-cash" viewBox="0 0 24 24"><g><g fill="none" stroke="#000" stroke-linejoin="round" stroke-miterlimit="10"><g stroke-linecap="round"><path d="M13.5 10.5h-3v3h3v3h-3M11.5 10.5v-1M12.5 17.5v-1"/></g><path d="M.5 6.5h23M.5 2.5h23v19H.5z"/><path stroke-linecap="round" d="M2.5 4.5H3M4.5 4.5H5M6.5 4.5H7"/></g></g></symbol><symbol id="svg-icon-windows-lock" viewBox="0 0 24 24"><g><g fill="none" stroke="#000" stroke-linejoin="round" stroke-miterlimit="10"><path d="M.5 6.5h23M.5 2.5h23v19H.5z"/><path d="M8.5 13.5h7v5h-7zM9.5 13.5v-2l2.5-2 2.5 2v2"/><path stroke-linecap="round" d="M12 16.5v-1M2.5 4.5H3M4.5 4.5H5M6.5 4.5H7"/></g></g></symbol></svg>